<?xml version="1.0" encoding="utf-8"?>
<!-- Generator: Adobe Illustrator 18.0.0, SVG Export Plug-In . SVG Version: 6.00 Build 0)  -->
<!DOCTYPE svg PUBLIC "-//W3C//DTD SVG 1.1//EN" "http://www.w3.org/Graphics/SVG/1.1/DTD/svg11.dtd">
<svg version="1.1" id="Layer_1" xmlns="http://www.w3.org/2000/svg" xmlns:xlink="http://www.w3.org/1999/xlink" x="0px" y="0px"
	 viewBox="0 0 500 200" enable-background="new 0 0 500 200" xml:space="preserve">
<g enable-background="new    ">
	<path fill="#FFFFFF" d="M112.5,154.9c1.6,2.9,2.5,5.7,2.5,7.6c0,8-17.8,17.4-34.3,17.4c-5.5,0-7.4-1.4-8.6-5.7L56.7,128l-12.1,11.4
		l-0.8,17l-1.4,10.2c-1.2,8.2-8.2,11.4-26.2,11.4c-11.8,0-15.5-2-15.5-6.7c0-1.2,0.2-2.7,0.8-6.7l16.1-113
		c1-7.2,11.8-12.7,28.2-12.7c9,0,13.3,2.9,13.3,6.5c0,3.3-0.4,5.5-1,9l-7.8,38.4h1.6l36-49.2c3.1-5.1,5.5-6.5,10.2-6.5
		c12.3,0,26.1,11.8,26.1,20.6c0,2.9-0.8,5.7-6.3,10.8l-33.7,32.9L112.5,154.9z"/>
	<path fill="#FFFFFF" d="M241.8,75.7c0,1.2,0,1.6-1.2,10.4l-9,64.6c0,1.4,2.4,16.5,2.4,19c0,3.5-4.5,8.2-21.9,8.2
		c-11,0-13.9-2-14.7-4.7l-2.7-12.3h-0.8c-6.3,12.1-18.4,19-33.3,19c-20,0-31.9-12.3-31.9-42.9c0-43.1,23.9-74.4,72.9-74.4
		C223.2,62.6,241.8,69.1,241.8,75.7z M176.6,98.1c-5.7,10.2-7.8,26.8-7.8,37.8c0,11.2,2.4,17.4,10.8,17.4c8.2,0,14.1-5.9,15.7-14.7
		l5.7-40.5l0.8-5.9c0-2-3.5-3.7-9-3.7C185.8,88.5,180.7,91.2,176.6,98.1z"/>
	<path fill="#FFFFFF" d="M420.1,169.9c0,4.3-7.6,8-24.3,8c-13.1,0-14.9-2.4-15.9-4.9c-1.4-4.1-2.7-9.4-2.7-12.5
		c0-1.2,0.2-2.5,6.7-48c0.6-3.9,0.8-7.4,0.8-10.2c0-9.2-3.1-12.9-9.6-12.9c-7.6,0-12.9,5.5-14.5,17.6l-8.8,62.1
		c-0.8,5.3-10.2,8.8-24.1,8.8c-9.8,0-13.7-1.8-13.7-5.5c0-0.8,0.2-2.4,1.2-8l7.2-52.1c0.6-4.1,0.8-7.2,0.8-9.8
		c0-9.4-3.1-13.1-9.2-13.1c-8,0-13.7,6.5-15.5,18.8L290,169c-0.8,5.5-9.6,9-24.1,9c-10.4,0-14.9-1.8-14.9-5.7c0-0.8,0.2-2.5,1-7.8
		l12.7-89.9c0.8-5.3,11-10.2,24.9-10.2c9.8,0,13.1,2.4,13.1,6.1c0,3.1-0.2,7.1-0.8,13.3h0.8c6.7-14.3,19.2-21.2,33.5-21.2
		c13.5,0,24.5,6.3,26.2,21.7c6.7-14.7,19.4-21.7,34.9-21.7c19,0,27,10.2,27,29.6c0,4.9-0.4,7.8-7.6,59.6
		C416.8,153.3,420.1,167.2,420.1,169.9z"/>
	<path fill="#FFFFFF" d="M476.9,66.7c9.8,0,14.1,2.7,14.1,6.3c0,1.8-1,8-1.4,11.4l-9.6,68c0,2.2,2.7,14.5,2.7,17.4
		c0,4.5-8.6,8.2-25.1,8.2c-11.6,0-14.1-2-15.7-5.1c-1.8-3.5-2.9-8.6-2.9-11.6c0-2,0.8-9,11.6-83.6C451.4,71.6,463.2,66.7,476.9,66.7
		z M455.7,37.1c0-9.6,7.6-17.2,24.5-17.2c12.3,0,18.8,4.1,18.8,12.7c0,10-8.4,17.8-24.5,17.8C462.4,50.5,455.7,46.1,455.7,37.1z"/>
</g>
</svg>
